<mxfile host="Electron" agent="Mozilla/5.0 (X11; Linux x86_64) AppleWebKit/537.36 (KHTML, like Gecko) draw.io/24.7.17 Chrome/128.0.6613.36 Electron/32.0.1 Safari/537.36" version="24.7.17">
  <diagram name="Página-1" id="-6NhGTR_NpOUXOUd0mMN">
    <mxGraphModel dx="1195" dy="708" grid="1" gridSize="10" guides="1" tooltips="1" connect="1" arrows="1" fold="1" page="1" pageScale="1" pageWidth="1200" pageHeight="1600" background="none" math="0" shadow="0">
      <root>
        <mxCell id="0" />
        <mxCell id="1" parent="0" />
        <mxCell id="gCXlIaM7Jgopa3csC6Po-4" value="" style="rounded=0;whiteSpace=wrap;html=1;" parent="1" vertex="1">
          <mxGeometry x="533" y="110" width="485" height="70" as="geometry" />
        </mxCell>
        <mxCell id="gCXlIaM7Jgopa3csC6Po-5" value="T0" style="rounded=0;whiteSpace=wrap;html=1;" parent="1" vertex="1">
          <mxGeometry x="533" y="110" width="50" height="70" as="geometry" />
        </mxCell>
        <mxCell id="gCXlIaM7Jgopa3csC6Po-6" value="T1" style="rounded=0;whiteSpace=wrap;html=1;" parent="1" vertex="1">
          <mxGeometry x="583" y="110" width="50" height="70" as="geometry" />
        </mxCell>
        <mxCell id="gCXlIaM7Jgopa3csC6Po-7" value="T2" style="rounded=0;whiteSpace=wrap;html=1;" parent="1" vertex="1">
          <mxGeometry x="633" y="110" width="50" height="70" as="geometry" />
        </mxCell>
        <mxCell id="gCXlIaM7Jgopa3csC6Po-8" value="T3" style="rounded=0;whiteSpace=wrap;html=1;align=left;" parent="1" vertex="1">
          <mxGeometry x="683" y="110" width="335" height="70" as="geometry" />
        </mxCell>
        <mxCell id="gCXlIaM7Jgopa3csC6Po-9" value="Asignado a: Nodo01" style="text;html=1;align=center;verticalAlign=middle;whiteSpace=wrap;rounded=0;" parent="1" vertex="1">
          <mxGeometry x="715.5" y="120" width="120" height="30" as="geometry" />
        </mxCell>
        <mxCell id="gCXlIaM7Jgopa3csC6Po-10" value="Status: En espera" style="text;html=1;align=center;verticalAlign=middle;whiteSpace=wrap;rounded=0;" parent="1" vertex="1">
          <mxGeometry x="715.5" y="140" width="120" height="30" as="geometry" />
        </mxCell>
        <mxCell id="gCXlIaM7Jgopa3csC6Po-11" value="Status disponibles:&amp;nbsp;&lt;div&gt;En espera&lt;/div&gt;&lt;div&gt;Muertita&lt;/div&gt;&lt;div&gt;Lista&lt;/div&gt;&lt;div&gt;Libre&lt;/div&gt;&lt;div&gt;&lt;br&gt;&lt;/div&gt;" style="text;html=1;align=center;verticalAlign=middle;whiteSpace=wrap;rounded=0;" parent="1" vertex="1">
          <mxGeometry x="663" y="40" width="140" height="60" as="geometry" />
        </mxCell>
        <mxCell id="gCXlIaM7Jgopa3csC6Po-12" value="Timestamp de entrada" style="text;html=1;align=center;verticalAlign=middle;whiteSpace=wrap;rounded=0;" parent="1" vertex="1">
          <mxGeometry x="857" y="110" width="130" height="30" as="geometry" />
        </mxCell>
        <mxCell id="gCXlIaM7Jgopa3csC6Po-13" value="Timestamp de asignada" style="text;html=1;align=center;verticalAlign=middle;whiteSpace=wrap;rounded=0;" parent="1" vertex="1">
          <mxGeometry x="857" y="130" width="130" height="30" as="geometry" />
        </mxCell>
        <mxCell id="gCXlIaM7Jgopa3csC6Po-14" value="Timestamp de conclusion" style="text;html=1;align=center;verticalAlign=middle;whiteSpace=wrap;rounded=0;" parent="1" vertex="1">
          <mxGeometry x="849" y="150" width="146" height="30" as="geometry" />
        </mxCell>
        <mxCell id="gCXlIaM7Jgopa3csC6Po-16" style="edgeStyle=orthogonalEdgeStyle;rounded=0;orthogonalLoop=1;jettySize=auto;html=1;entryX=0;entryY=0.5;entryDx=0;entryDy=0;" parent="1" source="gCXlIaM7Jgopa3csC6Po-15" target="gCXlIaM7Jgopa3csC6Po-5" edge="1">
          <mxGeometry relative="1" as="geometry" />
        </mxCell>
        <mxCell id="gCXlIaM7Jgopa3csC6Po-37" style="edgeStyle=orthogonalEdgeStyle;rounded=0;orthogonalLoop=1;jettySize=auto;html=1;entryX=0;entryY=0.5;entryDx=0;entryDy=0;" parent="1" source="gCXlIaM7Jgopa3csC6Po-15" target="gCXlIaM7Jgopa3csC6Po-28" edge="1">
          <mxGeometry relative="1" as="geometry" />
        </mxCell>
        <mxCell id="gCXlIaM7Jgopa3csC6Po-66" style="rounded=0;orthogonalLoop=1;jettySize=auto;html=1;exitX=0;exitY=0;exitDx=0;exitDy=0;entryX=1;entryY=1;entryDx=0;entryDy=0;" parent="1" source="gCXlIaM7Jgopa3csC6Po-15" edge="1" target="gCXlIaM7Jgopa3csC6Po-68">
          <mxGeometry relative="1" as="geometry">
            <mxPoint x="380" y="140" as="targetPoint" />
          </mxGeometry>
        </mxCell>
        <mxCell id="gCXlIaM7Jgopa3csC6Po-15" value="&lt;span style=&quot;text-wrap: nowrap;&quot;&gt;Master: Puerto 8081&lt;/span&gt;" style="ellipse;whiteSpace=wrap;html=1;aspect=fixed;" parent="1" vertex="1">
          <mxGeometry x="453" y="200" width="120" height="120" as="geometry" />
        </mxCell>
        <mxCell id="gCXlIaM7Jgopa3csC6Po-27" value="" style="rounded=0;whiteSpace=wrap;html=1;" parent="1" vertex="1">
          <mxGeometry x="623" y="225" width="485" height="70" as="geometry" />
        </mxCell>
        <mxCell id="gCXlIaM7Jgopa3csC6Po-28" value="N0" style="rounded=0;whiteSpace=wrap;html=1;" parent="1" vertex="1">
          <mxGeometry x="623" y="225" width="50" height="70" as="geometry" />
        </mxCell>
        <mxCell id="gCXlIaM7Jgopa3csC6Po-29" value="N1" style="rounded=0;whiteSpace=wrap;html=1;" parent="1" vertex="1">
          <mxGeometry x="673" y="225" width="50" height="70" as="geometry" />
        </mxCell>
        <mxCell id="gCXlIaM7Jgopa3csC6Po-30" value="N2" style="rounded=0;whiteSpace=wrap;html=1;" parent="1" vertex="1">
          <mxGeometry x="723" y="225" width="50" height="70" as="geometry" />
        </mxCell>
        <mxCell id="gCXlIaM7Jgopa3csC6Po-31" value="N3" style="rounded=0;whiteSpace=wrap;html=1;align=left;" parent="1" vertex="1">
          <mxGeometry x="773" y="225" width="335" height="70" as="geometry" />
        </mxCell>
        <mxCell id="gCXlIaM7Jgopa3csC6Po-34" value="Timestamp de registro" style="text;html=1;align=center;verticalAlign=middle;whiteSpace=wrap;rounded=0;" parent="1" vertex="1">
          <mxGeometry x="947" y="225" width="130" height="30" as="geometry" />
        </mxCell>
        <mxCell id="gCXlIaM7Jgopa3csC6Po-38" value="Comunicación mediante http." style="text;html=1;align=center;verticalAlign=middle;resizable=0;points=[];autosize=1;strokeColor=none;fillColor=none;fontSize=16;" parent="1" vertex="1">
          <mxGeometry x="453" y="40" width="230" height="30" as="geometry" />
        </mxCell>
        <mxCell id="gCXlIaM7Jgopa3csC6Po-39" value="Health Check" style="text;html=1;align=center;verticalAlign=middle;whiteSpace=wrap;rounded=0;" parent="1" vertex="1">
          <mxGeometry x="817" y="225" width="130" height="30" as="geometry" />
        </mxCell>
        <mxCell id="gCXlIaM7Jgopa3csC6Po-41" value="IP del nodo" style="text;html=1;align=center;verticalAlign=middle;whiteSpace=wrap;rounded=0;" parent="1" vertex="1">
          <mxGeometry x="947" y="245" width="130" height="30" as="geometry" />
        </mxCell>
        <mxCell id="gCXlIaM7Jgopa3csC6Po-53" style="edgeStyle=orthogonalEdgeStyle;rounded=0;orthogonalLoop=1;jettySize=auto;html=1;entryX=0;entryY=0.5;entryDx=0;entryDy=0;" parent="1" source="gCXlIaM7Jgopa3csC6Po-42" target="gCXlIaM7Jgopa3csC6Po-44" edge="1">
          <mxGeometry relative="1" as="geometry">
            <Array as="points">
              <mxPoint x="513" y="405" />
            </Array>
          </mxGeometry>
        </mxCell>
        <mxCell id="gCXlIaM7Jgopa3csC6Po-59" style="edgeStyle=orthogonalEdgeStyle;rounded=0;orthogonalLoop=1;jettySize=auto;html=1;" parent="1" source="gCXlIaM7Jgopa3csC6Po-42" edge="1">
          <mxGeometry relative="1" as="geometry">
            <mxPoint x="513" y="630" as="targetPoint" />
          </mxGeometry>
        </mxCell>
        <mxCell id="gCXlIaM7Jgopa3csC6Po-42" value="&lt;span style=&quot;text-wrap: nowrap;&quot;&gt;Nodo: Puerto ????&lt;/span&gt;&lt;div&gt;&lt;span style=&quot;text-wrap: nowrap;&quot;&gt;Direccion del master&lt;/span&gt;&lt;/div&gt;&lt;div&gt;&lt;span style=&quot;text-wrap: nowrap;&quot;&gt;Cantidad de procesos&lt;/span&gt;&lt;/div&gt;" style="ellipse;whiteSpace=wrap;html=1;aspect=fixed;" parent="1" vertex="1">
          <mxGeometry x="453" y="450" width="120" height="120" as="geometry" />
        </mxCell>
        <mxCell id="gCXlIaM7Jgopa3csC6Po-43" value="" style="rounded=0;whiteSpace=wrap;html=1;" parent="1" vertex="1">
          <mxGeometry x="614" y="370" width="485" height="70" as="geometry" />
        </mxCell>
        <mxCell id="gCXlIaM7Jgopa3csC6Po-44" value="T0" style="rounded=0;whiteSpace=wrap;html=1;" parent="1" vertex="1">
          <mxGeometry x="614" y="370" width="50" height="70" as="geometry" />
        </mxCell>
        <mxCell id="gCXlIaM7Jgopa3csC6Po-45" value="T1" style="rounded=0;whiteSpace=wrap;html=1;" parent="1" vertex="1">
          <mxGeometry x="664" y="370" width="50" height="70" as="geometry" />
        </mxCell>
        <mxCell id="gCXlIaM7Jgopa3csC6Po-46" value="T2" style="rounded=0;whiteSpace=wrap;html=1;" parent="1" vertex="1">
          <mxGeometry x="714" y="370" width="50" height="70" as="geometry" />
        </mxCell>
        <mxCell id="gCXlIaM7Jgopa3csC6Po-47" value="T3" style="rounded=0;whiteSpace=wrap;html=1;align=left;" parent="1" vertex="1">
          <mxGeometry x="764" y="370" width="335" height="70" as="geometry" />
        </mxCell>
        <mxCell id="gCXlIaM7Jgopa3csC6Po-48" value="Asignado a: Nodo01" style="text;html=1;align=center;verticalAlign=middle;whiteSpace=wrap;rounded=0;" parent="1" vertex="1">
          <mxGeometry x="796.5" y="380" width="120" height="30" as="geometry" />
        </mxCell>
        <mxCell id="gCXlIaM7Jgopa3csC6Po-49" value="Status: En espera" style="text;html=1;align=center;verticalAlign=middle;whiteSpace=wrap;rounded=0;" parent="1" vertex="1">
          <mxGeometry x="796.5" y="400" width="120" height="30" as="geometry" />
        </mxCell>
        <mxCell id="gCXlIaM7Jgopa3csC6Po-50" value="Timestamp de entrada" style="text;html=1;align=center;verticalAlign=middle;whiteSpace=wrap;rounded=0;" parent="1" vertex="1">
          <mxGeometry x="938" y="370" width="130" height="30" as="geometry" />
        </mxCell>
        <mxCell id="gCXlIaM7Jgopa3csC6Po-51" value="Timestamp de asignada" style="text;html=1;align=center;verticalAlign=middle;whiteSpace=wrap;rounded=0;" parent="1" vertex="1">
          <mxGeometry x="938" y="390" width="130" height="30" as="geometry" />
        </mxCell>
        <mxCell id="gCXlIaM7Jgopa3csC6Po-52" value="Timestamp de conclusion" style="text;html=1;align=center;verticalAlign=middle;whiteSpace=wrap;rounded=0;" parent="1" vertex="1">
          <mxGeometry x="930" y="410" width="146" height="30" as="geometry" />
        </mxCell>
        <mxCell id="gCXlIaM7Jgopa3csC6Po-54" value="Esta cola de Tareas es general" style="text;html=1;align=right;verticalAlign=middle;resizable=0;points=[];autosize=1;strokeColor=none;fillColor=none;" parent="1" vertex="1">
          <mxGeometry x="828" y="80" width="190" height="30" as="geometry" />
        </mxCell>
        <mxCell id="gCXlIaM7Jgopa3csC6Po-55" value="Esta cola de Tareas es solamente las que le corresponden al nodo" style="text;html=1;align=right;verticalAlign=middle;resizable=0;points=[];autosize=1;strokeColor=none;fillColor=none;" parent="1" vertex="1">
          <mxGeometry x="719" y="340" width="380" height="30" as="geometry" />
        </mxCell>
        <mxCell id="gCXlIaM7Jgopa3csC6Po-56" value="Cantidad de procesos" style="text;html=1;align=center;verticalAlign=middle;whiteSpace=wrap;rounded=0;" parent="1" vertex="1">
          <mxGeometry x="817" y="245" width="130" height="30" as="geometry" />
        </mxCell>
        <mxCell id="gCXlIaM7Jgopa3csC6Po-57" value="Lista de nodos registrados" style="text;html=1;align=right;verticalAlign=middle;resizable=0;points=[];autosize=1;strokeColor=none;fillColor=none;" parent="1" vertex="1">
          <mxGeometry x="948" y="200" width="160" height="30" as="geometry" />
        </mxCell>
        <mxCell id="gCXlIaM7Jgopa3csC6Po-63" style="edgeStyle=orthogonalEdgeStyle;rounded=0;orthogonalLoop=1;jettySize=auto;html=1;entryX=0;entryY=0.5;entryDx=0;entryDy=0;" parent="1" source="gCXlIaM7Jgopa3csC6Po-62" target="gCXlIaM7Jgopa3csC6Po-15" edge="1">
          <mxGeometry relative="1" as="geometry">
            <Array as="points">
              <mxPoint x="213" y="670" />
              <mxPoint x="213" y="260" />
            </Array>
          </mxGeometry>
        </mxCell>
        <mxCell id="gCXlIaM7Jgopa3csC6Po-62" value="Tiene que haber un proceso o un hilo, que periodicamente esté enviando un mensaje al Nodo master indicando que está vivo" style="verticalAlign=middle;horizontal=1;whiteSpace=wrap;html=1;" parent="1" vertex="1">
          <mxGeometry x="423" y="630" width="180" height="80" as="geometry" />
        </mxCell>
        <mxCell id="gCXlIaM7Jgopa3csC6Po-64" value="El nodo master debe de esperar cada cierto periodo de tiempo el mensaje, si no lo recibe, automaticamente debe de redistribuir las tareas asignadas al nodo que murió de forma que considere la carga de los otros nodos y debe de sacar el nodo de su lista de registrado." style="verticalAlign=middle;horizontal=1;whiteSpace=wrap;html=1;" parent="1" vertex="1">
          <mxGeometry x="93" y="410" width="250" height="110" as="geometry" />
        </mxCell>
        <mxCell id="gCXlIaM7Jgopa3csC6Po-65" value="La lista de tareas del nodo debe de tener un tamaño fijo." style="text;html=1;align=right;verticalAlign=middle;resizable=0;points=[];autosize=1;strokeColor=none;fillColor=none;" parent="1" vertex="1">
          <mxGeometry x="779" y="440" width="320" height="30" as="geometry" />
        </mxCell>
        <mxCell id="gCXlIaM7Jgopa3csC6Po-68" value="Si todos los nodos registrados están llenos, se debe de esperar hasta que haya uno libre y asignarlo." style="rounded=0;whiteSpace=wrap;html=1;" parent="1" vertex="1">
          <mxGeometry x="210" y="60" width="190" height="80" as="geometry" />
        </mxCell>
      </root>
    </mxGraphModel>
  </diagram>
</mxfile>
